<svg width="20" height="14" viewBox="0 0 20 14" fill="none" xmlns="http://www.w3.org/2000/svg">
<path d="M16.1771 1C15.7619 1.36647 15.5 1.90265 15.5 2.5C15.5 3.60457 16.3954 4.5 17.5 4.5C17.6726 4.5 18.5 4.5 19 4M4 13C4.78105 12.219 4.78105 10.781 4 10C3.21895 9.21895 1.78105 9.21895 1 10M4 1C4.78105 1.78105 4.78105 3.21895 4 4C3.21895 4.78105 1.78105 4.78105 1 4M16 13C15.219 12.219 15.219 10.781 16 10C16.781 9.21895 18.219 9.21895 19 10M4.2 13H15.8C16.9201 13 17.4802 13 17.908 12.782C18.2843 12.5903 18.5903 12.2843 18.782 11.908C19 11.4802 19 10.9201 19 9.8V4.2C19 3.0799 19 2.51984 18.782 2.09202C18.5903 1.71569 18.2843 1.40973 17.908 1.21799C17.4802 1 16.9201 1 15.8 1H4.2C3.0799 1 2.51984 1 2.09202 1.21799C1.71569 1.40973 1.40973 1.71569 1.21799 2.09202C1 2.51984 1 3.0799 1 4.2V9.8C1 10.9201 1 11.4802 1.21799 11.908C1.40973 12.2843 1.71569 12.5903 2.09202 12.782C2.51984 13 3.07989 13 4.2 13ZM12 7C12 8.10457 11.1046 9 10 9C8.89543 9 8 8.10457 8 7C8 5.89543 8.89543 5 10 5C11.1046 5 12 5.89543 12 7Z" stroke="#772917" stroke-width="2" stroke-linecap="round" stroke-linejoin="round"/>
</svg>
